<svg width="44" height="44" viewBox="0 0 44 44" fill="none" xmlns="http://www.w3.org/2000/svg">
<rect width="44" height="44" rx="12" fill="#E9E8EB" fill-opacity="0.05"/>
<path d="M26.1676 23.6114C26.1831 24.0835 26.3983 24.5279 26.7613 24.8328L27.5947 25.5328C28.679 26.4436 30.3333 25.6728 30.3333 24.2566V19.7433C30.3333 18.3271 28.679 17.5563 27.5947 18.4671L26.7613 19.1671C26.4 19.4706 26.185 19.9124 26.1678 20.3821M26.1676 23.6114L26.1667 24.5C26.1667 26.3409 24.6743 27.8333 22.8333 27.8333H17C15.1591 27.8333 13.6667 26.3409 13.6667 24.5V19.5C13.6667 17.659 15.1591 16.1666 17 16.1666H22.8333C24.6743 16.1666 26.1667 17.659 26.1667 19.5L26.1678 20.3821M26.1676 23.6114L26.1678 20.3821" stroke="#E9E8EB" stroke-opacity="0.5" stroke-width="1.75" stroke-linecap="round" stroke-linejoin="round"/>
</svg>
