<svg width="29" height="29" viewBox="0 0 29 29" fill="none" xmlns="http://www.w3.org/2000/svg">
<path d="M0.147461 10.3959C0.147461 7.03558 0.147461 5.35543 0.801422 4.07196C1.37666 2.94298 2.29455 2.0251 3.42352 1.44986C4.70699 0.795898 6.38715 0.795898 9.74746 0.795898H18.5475C21.9078 0.795898 23.5879 0.795898 24.8714 1.44986C26.0004 2.0251 26.9183 2.94298 27.4935 4.07196C28.1475 5.35543 28.1475 7.03558 28.1475 10.3959V19.1959C28.1475 22.5562 28.1475 24.2364 27.4935 25.5198C26.9183 26.6488 26.0004 27.5667 24.8714 28.1419C23.5879 28.7959 21.9078 28.7959 18.5475 28.7959H9.74746C6.38715 28.7959 4.70699 28.7959 3.42352 28.1419C2.29455 27.5667 1.37666 26.6488 0.801422 25.5198C0.147461 24.2364 0.147461 22.5562 0.147461 19.1959V10.3959Z" fill="white" fill-opacity="0.1"/>
<path d="M14.1473 20.6293V14.796M14.1473 14.796V8.96265M14.1473 14.796L8.31396 14.796M14.1473 14.796L19.9806 14.796" stroke="#7D7D7F" stroke-width="1.5" stroke-linecap="round" stroke-linejoin="round"/>
</svg>
