<svg width="29" height="29" viewBox="0 0 29 29" fill="none" xmlns="http://www.w3.org/2000/svg">
<path d="M6.64765 9.96257C6.64765 9.02914 6.64765 8.56243 6.82931 8.20591C6.98909 7.89231 7.24406 7.63734 7.55767 7.47755C7.91419 7.2959 8.3809 7.2959 9.31432 7.2959H9.81432C10.7477 7.2959 11.2144 7.2959 11.571 7.47755C11.8846 7.63734 12.1395 7.89231 12.2993 8.20591C12.481 8.56243 12.481 9.02914 12.481 9.96257V10.4626C12.481 11.396 12.481 11.8627 12.2993 12.2192C12.1395 12.5328 11.8846 12.7878 11.571 12.9476C11.2144 13.1292 10.7477 13.1292 9.81432 13.1292H9.31432C8.3809 13.1292 7.91419 13.1292 7.55767 12.9476C7.24406 12.7878 6.98909 12.5328 6.82931 12.2192C6.64765 11.8627 6.64765 11.396 6.64765 10.4626V9.96257Z" stroke="white" stroke-opacity="0.5" stroke-width="1.5" stroke-linecap="round" stroke-linejoin="round"/>
<path d="M7.32515 21.2648C6.66512 20.6048 6.3351 20.2748 6.21146 19.8943C6.10269 19.5595 6.10269 19.1989 6.21146 18.8642C6.3351 18.4837 6.66512 18.1536 7.32514 17.4936L7.6787 17.1401C8.33873 16.48 8.66874 16.15 9.04929 16.0264C9.38403 15.9176 9.74461 15.9176 10.0793 16.0264C10.4599 16.15 10.7899 16.48 11.4499 17.1401L11.8035 17.4936C12.4635 18.1536 12.7935 18.4837 12.9172 18.8642C13.0259 19.1989 13.0259 19.5595 12.9172 19.8943C12.7935 20.2748 12.4635 20.6048 11.8035 21.2648L11.4499 21.6184C10.7899 22.2784 10.4599 22.6084 10.0793 22.7321C9.74461 22.8409 9.38403 22.8409 9.04929 22.7321C8.66874 22.6084 8.33873 22.2784 7.6787 21.6184L7.32515 21.2648Z" stroke="white" stroke-opacity="0.5" stroke-width="1.5" stroke-linecap="round" stroke-linejoin="round"/>
<path d="M15.8143 10.2126C15.8143 8.60173 17.1202 7.2959 18.731 7.2959C20.3418 7.2959 21.6476 8.60173 21.6476 10.2126C21.6476 11.8234 20.3418 13.1292 18.731 13.1292C17.1202 13.1292 15.8143 11.8234 15.8143 10.2126Z" stroke="white" stroke-opacity="0.5" stroke-width="1.5" stroke-linecap="round" stroke-linejoin="round"/>
<path d="M15.8143 19.1292C15.8143 18.1958 15.8143 17.7291 15.996 17.3726C16.1558 17.059 16.4107 16.804 16.7243 16.6442C17.0809 16.4626 17.5476 16.4626 18.481 16.4626H18.981C19.9144 16.4626 20.3811 16.4626 20.7376 16.6442C21.0512 16.804 21.3062 17.059 21.466 17.3726C21.6476 17.7291 21.6476 18.1958 21.6476 19.1292V19.6292C21.6476 20.5627 21.6476 21.0294 21.466 21.3859C21.3062 21.6995 21.0512 21.9545 20.7376 22.1142C20.3811 22.2959 19.9144 22.2959 18.981 22.2959H18.481C17.5476 22.2959 17.0809 22.2959 16.7243 22.1142C16.4107 21.9545 16.1558 21.6995 15.996 21.3859C15.8143 21.0294 15.8143 20.5627 15.8143 19.6292V19.1292Z" stroke="white" stroke-opacity="0.5" stroke-width="1.5" stroke-linecap="round" stroke-linejoin="round"/>
</svg>
