<svg width="29" height="29" viewBox="0 0 29 29" fill="none" xmlns="http://www.w3.org/2000/svg">
<path d="M13.0822 15.1832C11.3269 17.1838 9.27115 18.8755 7.00484 20.3042C5.39724 21.3176 9.71206 21.89 10.0969 21.9473M13.0822 15.1832L19.9796 16.9705M13.0822 15.1832C14.4059 13.6746 14.9608 12.8521 17.1694 13.4099M19.9796 16.9705C19.9712 16.4501 19.9171 15.9239 19.8152 15.3922C19.5656 14.0905 18.2313 13.6781 17.1694 13.4099M19.9796 16.9705C20.0036 18.445 19.6617 19.8728 19.0069 21.2465C18.4593 22.395 15.9266 22.2988 14.5596 22.2907M10.0969 21.9473C11.5744 22.1671 13.0658 22.2818 14.5596 22.2907M10.0969 21.9473C11.0466 21.458 12.7175 20.0564 13.9287 18.3574M14.5596 22.2907C15.0889 21.7181 16.2066 20.3772 16.8262 19.2069M17.1694 13.4099L19.6889 7.2959" stroke="white" stroke-opacity="0.5" stroke-width="1.5" stroke-linecap="round" stroke-linejoin="round"/>
</svg>
