<svg width="28" height="28" viewBox="0 0 28 28" fill="none" xmlns="http://www.w3.org/2000/svg">
<path d="M11.1478 8.80306C11.5309 8.05886 11.7225 7.68676 11.9798 7.5662C12.2038 7.46123 12.4629 7.46123 12.6869 7.5662C12.9442 7.68676 13.1358 8.05886 13.5188 8.80307L14.5119 10.7323C14.5783 10.8612 14.6115 10.9257 14.6544 10.9826C14.6925 11.0332 14.7362 11.0792 14.7848 11.1198C14.8394 11.1656 14.9021 11.202 15.0275 11.2749L17.0161 12.4305C17.6677 12.8091 17.9935 12.9985 18.1031 13.2452C18.1986 13.4605 18.1986 13.7062 18.1031 13.9214C17.9935 14.1682 17.6677 14.3575 17.0161 14.7362L15.0275 15.8918C14.9021 15.9646 14.8394 16.001 14.7848 16.0468C14.7362 16.0875 14.6925 16.1335 14.6544 16.184C14.6115 16.241 14.5783 16.3054 14.5119 16.4344L13.5188 18.3636C13.1358 19.1078 12.9442 19.4799 12.6869 19.6005C12.4629 19.7054 12.2038 19.7054 11.9798 19.6005C11.7225 19.4799 11.5309 19.1078 11.1478 18.3636L10.1548 16.4344C10.0884 16.3054 10.0552 16.241 10.0123 16.184C9.97418 16.1335 9.93045 16.0875 9.88192 16.0468C9.82725 16.001 9.76456 15.9646 9.63918 15.8918L7.65053 14.7362C6.99894 14.3575 6.67315 14.1682 6.56361 13.9214C6.46805 13.7062 6.46805 13.4605 6.56361 13.2452C6.67315 12.9985 6.99894 12.8091 7.65053 12.4305L9.63918 11.2749C9.76456 11.202 9.82725 11.1656 9.88192 11.1198C9.93045 11.0792 9.97418 11.0332 10.0123 10.9826C10.0552 10.9257 10.0884 10.8612 10.1548 10.7323L11.1478 8.80306Z" stroke="white" stroke-opacity="0.5" stroke-width="1.5" stroke-linecap="round" stroke-linejoin="round"/>
<path d="M18.5496 20.1718C18.3381 19.9075 18.2324 19.7753 18.1928 19.6229C18.158 19.4889 18.158 19.3445 18.1928 19.2104C18.2324 19.058 18.3381 18.9259 18.5496 18.6615L19.2292 17.812C19.4407 17.5477 19.5464 17.4155 19.6683 17.366C19.7756 17.3224 19.8911 17.3224 19.9983 17.366C20.1203 17.4155 20.226 17.5477 20.4374 17.812L21.1171 18.6615C21.3285 18.9259 21.4343 19.058 21.4739 19.2104C21.5087 19.3445 21.5087 19.4889 21.4739 19.6229C21.4343 19.7753 21.3285 19.9075 21.1171 20.1718L20.4374 21.0213C20.226 21.2857 20.1203 21.4178 19.9983 21.4673C19.8911 21.5109 19.7756 21.5109 19.6683 21.4673C19.5464 21.4178 19.4407 21.2857 19.2292 21.0213L18.5496 20.1718Z" stroke="white" stroke-opacity="0.5" stroke-width="1.5" stroke-linecap="round" stroke-linejoin="round"/>
<path d="M19.1915 7.63539C19.0857 7.52966 19.0329 7.47679 19.0131 7.41583C18.9956 7.36221 18.9956 7.30445 19.0131 7.25083C19.0329 7.18987 19.0857 7.13701 19.1915 7.03128L19.5313 6.69147C19.637 6.58574 19.6899 6.53287 19.7508 6.51307C19.8045 6.49564 19.8622 6.49564 19.9158 6.51307C19.9768 6.53287 20.0297 6.58574 20.1354 6.69147L20.4752 7.03128C20.5809 7.13701 20.6338 7.18987 20.6536 7.25083C20.671 7.30445 20.671 7.36221 20.6536 7.41583C20.6338 7.47679 20.5809 7.52966 20.4752 7.63539L20.1354 7.9752C20.0297 8.08093 19.9768 8.13379 19.9158 8.1536C19.8622 8.17102 19.8045 8.17102 19.7508 8.1536C19.6899 8.13379 19.637 8.08093 19.5313 7.9752L19.1915 7.63539Z" stroke="white" stroke-opacity="0.5" stroke-width="1.5" stroke-linecap="round" stroke-linejoin="round"/>
</svg>
