<svg width="29" height="29" viewBox="0 0 29 29" fill="none" xmlns="http://www.w3.org/2000/svg">
<path d="M6.2183 14.3792C6.45001 10.0287 10.1991 6.65871 14.5496 6.89042C18.8693 7.12048 22.263 10.4837 22.0809 14.3038C21.9524 16.7172 19.8663 18.5916 17.4529 18.4631C16.6739 18.4216 15.5701 18.1192 14.9142 18.7087C14.4082 19.1636 14.317 20.0193 14.7835 20.5364C15.4654 21.3937 14.8562 22.7717 13.7071 22.7105C9.35654 22.4788 5.98659 18.7297 6.2183 14.3792Z" stroke="white" stroke-opacity="0.5" stroke-width="1.5" stroke-linecap="round" stroke-linejoin="round"/>
<path d="M9.54625 13.9625C9.54625 13.5022 9.91934 13.1292 10.3796 13.1292C10.8398 13.1292 11.2129 13.5022 11.2129 13.9625C11.2129 14.4227 10.8398 14.7958 10.3796 14.7958C9.91934 14.7958 9.54625 14.4227 9.54625 13.9625Z" stroke="white" stroke-opacity="0.5" stroke-width="1.5" stroke-linecap="round" stroke-linejoin="round"/>
<path d="M13.5215 10.8481C13.5215 10.3878 13.8946 10.0147 14.3548 10.0147C14.8151 10.0147 15.1882 10.3878 15.1882 10.8481C15.1882 11.3083 14.8151 11.6814 14.3548 11.6814C13.8946 11.6814 13.5215 11.3083 13.5215 10.8481Z" stroke="white" stroke-opacity="0.5" stroke-width="1.5" stroke-linecap="round" stroke-linejoin="round"/>
<path d="M17.2503 13.9625C17.2503 13.5022 17.6234 13.1292 18.0837 13.1292C18.5439 13.1292 18.917 13.5022 18.917 13.9625C18.917 14.4227 18.5439 14.7958 18.0837 14.7958C17.6234 14.7958 17.2503 14.4227 17.2503 13.9625Z" stroke="white" stroke-opacity="0.5" stroke-width="1.5" stroke-linecap="round" stroke-linejoin="round"/>
</svg>
