<svg width="29" height="29" viewBox="0 0 29 29" fill="none" xmlns="http://www.w3.org/2000/svg">
<path d="M14.1475 22.2959C18.2896 22.2959 21.6475 18.938 21.6475 14.7959C21.6475 10.6538 18.2896 7.2959 14.1475 7.2959C10.0053 7.2959 6.64746 10.6538 6.64746 14.7959C6.64746 15.1556 6.67279 15.5094 6.72175 15.8557C6.86363 16.8587 6.93456 17.3603 6.94474 17.4923C6.96128 17.7068 6.95862 17.6299 6.95695 17.845C6.95592 17.9774 6.94515 18.1282 6.92361 18.4298L6.79544 20.2243C6.7444 20.9388 6.71888 21.296 6.84555 21.5632C6.95674 21.7978 7.14561 21.9866 7.38014 22.0978C7.64731 22.2245 8.00459 22.199 8.71911 22.1479L10.5135 22.0197C10.815 21.9982 10.9659 21.9874 11.0983 21.9864C11.3135 21.9847 11.2365 21.9821 11.451 21.9986C11.5831 22.0088 12.0846 22.0797 13.0877 22.2216C13.4339 22.2706 13.7877 22.2959 14.1475 22.2959Z" stroke="white" stroke-opacity="0.5" stroke-width="1.5" stroke-linecap="round" stroke-linejoin="round"/>
</svg>
