<svg width="29" height="29" viewBox="0 0 29 29" fill="none" xmlns="http://www.w3.org/2000/svg">
<g clip-path="url(#clip0_640_9840)">
<path d="M14.4823 8.68865C14.4823 7.81234 13.772 7.10195 12.8956 7.10195C12.0193 7.10195 11.3089 7.81234 11.3089 8.68865V16.6221L10.2037 15.3326C9.45447 14.4586 8.20658 14.2065 7.17692 14.7214C6.84211 14.8888 6.72755 15.3103 6.93155 15.6242L10.2978 20.803C12.4844 24.167 18.9724 23.6891 20.4007 19.8802C20.7489 18.9517 20.8308 17.7134 20.8308 16.7128V9.57265C20.8308 8.69635 20.1204 7.98596 19.2441 7.98596C18.3678 7.98596 17.6574 8.69635 17.6574 9.57265M14.4823 12.7291V7.96902C14.4823 7.09271 15.1927 6.38232 16.069 6.38232C16.9453 6.38232 17.6557 7.09271 17.6557 7.96902V12.7291" stroke="white" stroke-opacity="0.5" stroke-width="1.5" stroke-linecap="round" stroke-linejoin="round"/>
</g>
<defs>
<clipPath id="clip0_640_9840">
<rect width="20" height="20" fill="white" transform="translate(4.14746 4.7959)"/>
</clipPath>
</defs>
</svg>
