<svg width="28" height="28" viewBox="0 0 28 28" fill="none" xmlns="http://www.w3.org/2000/svg">
<path d="M19.8333 22.3333V19.8333M19.8333 19.8333V17.3333M19.8333 19.8333H17.3333M19.8333 19.8333H22.3333M22.3333 15.1263V13.1667C22.3333 12.8707 22.3333 12.5936 22.3324 12.3333M14.4459 21.5H12.3333C11.7033 21.5 11.1583 21.5 10.6809 21.4911M22.3324 12.3333H21.5C20.3391 12.3333 19.7587 12.3333 19.2699 12.3836C14.7525 12.848 11.1813 16.4192 10.7169 20.9366C10.6997 21.1041 10.6883 21.2824 10.6809 21.4911M22.3324 12.3333C22.326 10.5416 22.2757 9.55331 21.8792 8.77504C21.4797 7.99103 20.8423 7.35361 20.0583 6.95414C19.167 6.5 18.0002 6.5 15.6666 6.5H12.3333C9.99974 6.5 8.83296 6.5 7.94167 6.95414C7.15766 7.35361 6.52024 7.99103 6.12077 8.77504C5.66663 9.66634 5.66663 10.8331 5.66663 13.1667V14.8333C5.66663 17.1669 5.66663 18.3337 6.12077 19.225C6.52024 20.009 7.15766 20.6464 7.94167 21.0459C8.59234 21.3774 9.38983 21.4669 10.6809 21.4911M10.25 11.9167C9.78972 11.9167 9.41663 11.5436 9.41663 11.0833C9.41663 10.6231 9.78972 10.25 10.25 10.25C10.7102 10.25 11.0833 10.6231 11.0833 11.0833C11.0833 11.5436 10.7102 11.9167 10.25 11.9167Z" stroke="white" stroke-opacity="0.5" stroke-width="1.5" stroke-linecap="round" stroke-linejoin="round"/>
</svg>
