<svg width="28" height="28" viewBox="0 0 28 28" fill="none" xmlns="http://www.w3.org/2000/svg">
<path d="M12.5518 6.5146C13.5083 6.32814 14.4918 6.32814 15.4483 6.5146M18.2686 7.68083C19.0783 8.22832 19.7746 8.92716 20.3191 9.73889M21.4853 12.5516C21.6718 13.5081 21.6718 14.4916 21.4853 15.4481M20.3191 18.2684C19.7716 19.0781 19.0727 19.7743 18.261 20.3188M15.4483 21.4851C14.4918 21.6713 13.5083 21.6713 12.5518 21.4851M9.73151 20.3188C8.9218 19.7713 8.22555 19.0725 7.68108 18.2608M6.51485 15.4481C6.32838 14.4916 6.32838 13.5081 6.51485 12.5516M7.68108 9.73127C8.22856 8.92156 8.9274 8.22531 9.73913 7.68083" stroke="#828386" stroke-width="1.5" stroke-linecap="round" stroke-linejoin="round"/>
</svg>
