<svg width="20" height="20" viewBox="0 0 20 20" fill="none" xmlns="http://www.w3.org/2000/svg">
<path d="M9.16987 15H7.5C4.73858 15 2.5 12.7614 2.5 10C2.5 7.23857 4.73858 5 7.5 5L12.375 5M9.16987 15C9.16987 14.8909 9.13344 14.7819 9.06057 14.692C8.5218 14.0271 7.90283 13.4307 7.21742 12.9167M9.16987 15C9.16987 15.1091 9.13344 15.2181 9.06057 15.308C8.5218 15.9729 7.90283 16.5693 7.21742 17.0833M12.375 5C12.375 6.44975 13.5502 7.625 15 7.625C16.4497 7.625 17.625 6.44975 17.625 5C17.625 3.55025 16.4497 2.375 15 2.375C13.5502 2.375 12.375 3.55025 12.375 5ZM15 17.5C14.2234 17.5 13.8351 17.5 13.5289 17.3731C13.1205 17.204 12.796 16.8795 12.6269 16.4711C12.5 16.1649 12.5 15.7766 12.5 15C12.5 14.2234 12.5 13.8351 12.6269 13.5289C12.796 13.1205 13.1205 12.796 13.5289 12.6269C13.8351 12.5 14.2234 12.5 15 12.5C15.7766 12.5 16.1649 12.5 16.4711 12.6269C16.8795 12.796 17.204 13.1205 17.3731 13.5289C17.5 13.8351 17.5 14.2234 17.5 15C17.5 15.7766 17.5 16.1649 17.3731 16.4711C17.204 16.8795 16.8795 17.204 16.4711 17.3731C16.1649 17.5 15.7766 17.5 15 17.5Z" stroke="#94E7ED" stroke-width="2" stroke-linecap="round" stroke-linejoin="round"/>
</svg>
