<svg width="24" height="24" viewBox="0 0 24 24" fill="none" xmlns="http://www.w3.org/2000/svg">
<path d="M9 14.1567C9 14.6179 9.18311 15.0602 9.50909 15.3865L9.59281 15.4703C9.91917 15.7969 10.362 15.9805 10.8237 15.9805H13.1826C13.6441 15.9805 14.0866 15.7971 14.413 15.4708L14.4904 15.3934C14.8167 15.0671 15 14.6245 15 14.1631V11.7205C15 10.7595 15.779 9.98047 16.74 9.98047H19.26C20.221 9.98047 21 10.7595 21 11.7205V14.2405C21 15.2014 20.221 15.9805 19.26 15.9805H16.8306C16.3694 15.9805 15.9271 16.1636 15.6008 16.4896L15.5102 16.5801C15.1835 16.9065 15 17.3493 15 17.811V20.2405C15 21.2014 14.221 21.9805 13.26 21.9805H10.74C9.77902 21.9805 9 21.2014 9 20.2405V17.8042C9 17.3424 8.81647 16.8996 8.48982 16.5733L8.40602 16.4896C8.07976 16.1636 7.63741 15.9805 7.1762 15.9805H4.74C3.77902 15.9805 3 15.2014 3 14.2405V11.7205C3 10.7595 3.77902 9.98047 4.74 9.98047H7.26C8.22098 9.98047 9 10.7595 9 11.7205V14.1567ZM9 6.26C9 7.22098 8.22098 8 7.26 8H4.74C3.77902 8 3 7.22098 3 6.26V3.74C3 2.77902 3.77902 2 4.74 2H7.26C8.22098 2 9 2.77902 9 3.74V6.26ZM21 6.26C21 7.22098 20.221 8 19.26 8H16.74C15.779 8 15 7.22098 15 6.26V3.74C15 2.77902 15.779 2 16.74 2H19.26C20.221 2 21 2.77902 21 3.74V6.26Z" fill="white" fill-opacity="0.5"/>
</svg>
