<svg width="28" height="28" viewBox="0 0 28 28" fill="none" xmlns="http://www.w3.org/2000/svg">
<path d="M8.5 14H11.5M11.5 14H14.5M11.5 14V11M11.5 14V17M19.0011 15.9337C19.0197 16.5002 19.278 17.0335 19.7136 17.3994L20.7136 18.2394C22.0148 19.3324 24 18.4074 24 16.708V11.292C24 9.5926 22.0148 8.6676 20.7136 9.7606L19.7136 10.6006C19.28 10.9648 19.022 11.495 19.0013 12.0586M19.0011 15.9337L19 17C19 19.2091 17.2091 21 15 21H8C5.79086 21 4 19.2091 4 17V11C4 8.7909 5.79086 7 8 7H15C17.2091 7 19 8.7909 19 11L19.0013 12.0586M19.0011 15.9337L19.0013 12.0586" stroke="white" stroke-opacity="0.5" stroke-width="1.5" stroke-linecap="round" stroke-linejoin="round"/>
</svg>
