<svg width="1080" height="1080" viewBox="0 0 1080 1080" fill="none" xmlns="http://www.w3.org/2000/svg">
  <!-- Rounded background rectangle -->
  <rect x="40" y="40" width="1000" height="1000" rx="200" ry="200" fill="white" stroke="black" stroke-width="4"/>
  
  <!-- Usuals.ai Logo -->
  <path d="M408.667 635.17C408.667 655.372 416.692 674.747 430.977 689.032L434.647 692.702C448.933 706.988 468.308 715.014 488.51 715.014H591.826C612.028 715.014 631.403 706.988 645.689 692.703L649.022 689.369C663.308 675.084 671.333 655.709 671.333 635.507V528.52C671.333 486.451 705.437 452.347 747.506 452.347H857.827C899.896 452.347 934 486.451 934 528.52V638.84C934 680.91 899.896 715.014 857.827 715.014H751.513C731.311 715.014 711.936 723.039 697.65 737.324L693.644 741.331C679.358 755.616 671.333 774.991 671.333 795.194V901.506C671.333 943.576 637.229 977.68 595.16 977.68H484.84C442.771 977.68 408.667 943.576 408.667 901.506V794.855C408.667 774.652 400.642 755.277 386.356 740.992L382.689 737.324C368.403 723.039 349.028 715.014 328.826 715.014H222.173C180.104 715.014 146 680.91 146 638.84V528.52C146 486.451 180.104 452.347 222.173 452.347H332.494C374.563 452.347 408.667 486.451 408.667 528.52V635.17ZM408.667 289.494C408.667 331.563 374.563 365.667 332.494 365.667H222.173C180.104 365.667 146 331.563 146 289.494V179.173C146 137.104 180.104 103 222.173 103H332.494C374.563 103 408.667 137.104 408.667 179.173V289.494ZM934 289.494C934 331.563 899.896 365.667 857.827 365.667H747.506C705.437 365.667 671.333 331.563 671.333 289.494V179.173C671.333 137.104 705.437 103 747.506 103H857.827C899.896 103 934 137.104 934 179.173V289.494Z" fill="black"/>
</svg>
